<?xml version="1.0" encoding="UTF-8" standalone="no"?>
<svg
   xmlns:dc="http://purl.org/dc/elements/1.1/"
   xmlns:cc="http://creativecommons.org/ns#"
   xmlns:rdf="http://www.w3.org/1999/02/22-rdf-syntax-ns#"
   xmlns:svg="http://www.w3.org/2000/svg"
   xmlns="http://www.w3.org/2000/svg"
   xmlns:sodipodi="http://sodipodi.sourceforge.net/DTD/sodipodi-0.dtd"
   xmlns:inkscape="http://www.inkscape.org/namespaces/inkscape"
   width="128"
   height="128"
   viewBox="0 0 33.866669 33.866669"
   version="1.1"
   id="svg8"
   sodipodi:docname="icon.svg"
   inkscape:export-filename="C:\Users\a\Desktop\bitmap.png"
   inkscape:export-xdpi="96"
   inkscape:export-ydpi="96"
   inkscape:version="1.0.1 (3bc2e813f5, 2020-09-07)">
  <defs
     id="defs2" />
  <sodipodi:namedview
     id="base"
     pagecolor="#ffffff"
     bordercolor="#666666"
     borderopacity="1.0"
     inkscape:pageopacity="0.0"
     inkscape:pageshadow="2"
     inkscape:zoom="1"
     inkscape:cx="152.85811"
     inkscape:cy="91.34371"
     inkscape:document-units="mm"
     inkscape:current-layer="layer1"
     showgrid="false"
     inkscape:snap-global="true"
     inkscape:snap-bbox="true"
     inkscape:bbox-paths="true"
     inkscape:bbox-nodes="true"
     fit-margin-top="0"
     fit-margin-left="0"
     fit-margin-right="0"
     fit-margin-bottom="0"
     inkscape:window-width="1366"
     inkscape:window-height="716"
     inkscape:window-x="-8"
     inkscape:window-y="-8"
     inkscape:window-maximized="1"
     units="px"
     inkscape:snap-page="true"
     inkscape:document-rotation="0"
     inkscape:snap-bbox-edge-midpoints="true"
     inkscape:object-paths="true"
     inkscape:snap-intersection-paths="false"
     inkscape:snap-smooth-nodes="false"
     inkscape:snap-midpoints="false"
     inkscape:snap-object-midpoints="true"
     inkscape:snap-center="false"
     inkscape:object-nodes="true"
     inkscape:snap-others="true"
     inkscape:snap-bbox-midpoints="true"
     inkscape:snap-nodes="true" />
  <metadata
     id="metadata5">
    <rdf:RDF>
      <cc:Work
         rdf:about="">
        <dc:format>image/svg+xml</dc:format>
        <dc:type
           rdf:resource="http://purl.org/dc/dcmitype/StillImage" />
        <dc:title />
      </cc:Work>
    </rdf:RDF>
  </metadata>
  <g
     inkscape:label="Layer 1"
     inkscape:groupmode="layer"
     id="layer1"
     transform="translate(-10.205358,65.857142)">
    <rect
       style="opacity:1;vector-effect:none;fill:#d5ffd5;fill-opacity:1;stroke:none;stroke-width:1.06161;stroke-linecap:square;stroke-linejoin:round;stroke-miterlimit:4;stroke-dasharray:none;stroke-dashoffset:0;stroke-opacity:0;paint-order:stroke fill markers"
       id="rect988"
       width="33.866665"
       height="33.866665"
       x="10.205358"
       y="-65.85714"
       inkscape:export-xdpi="96"
       inkscape:export-ydpi="96" />
    <g
       id="g821-3-3"
       transform="matrix(-0.0059486,0.0059486,-0.0059486,-0.0059486,26.253616,-54.012771)"
       style="fill:#000000"
       inkscape:export-xdpi="96"
       inkscape:export-ydpi="96" />
    <path
       id="path817-2-1-5"
       style="fill:#000000;stroke-width:0.0829032"
       d="M 60.382812 10.201172 C 59.162244 10.201172 58.060364 10.68068 57.234375 11.453125 C 56.981298 11.690139 56.747463 11.950032 56.552734 12.238281 C 56.551396 12.240262 56.548009 12.240411 56.546875 12.242188 C 56.38239 12.486496 56.240994 12.74703 56.125 13.021484 C 55.889498 13.576988 55.757812 14.188628 55.757812 14.830078 L 55.757812 42.589844 L 55.757812 42.59375 C 55.758156 42.911457 55.78857 43.221802 55.849609 43.521484 C 55.849938 43.523117 55.849277 43.523973 55.849609 43.525391 C 55.910724 43.824994 56.002882 44.11138 56.119141 44.386719 C 56.236419 44.665686 56.379718 44.927644 56.546875 45.175781 C 56.54771 45.17701 56.546044 45.180885 56.546875 45.181641 C 56.878377 45.672798 57.304872 46.094973 57.794922 46.427734 C 57.796917 46.429087 57.798994 46.43246 57.800781 46.433594 C 58.045354 46.59857 58.305231 46.73887 58.580078 46.855469 C 59.135586 47.091954 59.745276 47.228516 60.386719 47.228516 L 65.001953 47.228516 L 128 47.228516 L 128 10.201172 L 65.021484 10.201172 L 60.382812 10.201172 z "
       transform="matrix(0.26458333,0,0,0.26458333,10.205358,-65.857142)" />
    <path
       id="path817-2-1-5-4"
       style="fill:#000000;stroke-width:0.0829032"
       d="m 120.97656,52.441406 c -1.22057,0 -2.32049,0.479501 -3.14648,1.251953 -0.25308,0.237015 -0.48692,0.496907 -0.68164,0.785157 -0.001,0.002 -0.005,0.0021 -0.006,0.0039 -0.16449,0.244309 -0.30588,0.504843 -0.42188,0.779297 -0.2355,0.555507 -0.36718,1.167147 -0.36718,1.808593 v 27.759766 0.0039 c 3.4e-4,0.317745 0.0307,0.628056 0.0918,0.927735 3.2e-4,0.0016 -3.4e-4,0.0025 0,0.0039 0.0611,0.299603 0.15328,0.58599 0.26953,0.861328 0.11728,0.279005 0.26058,0.540918 0.42774,0.789063 8.5e-4,0.0012 -8.2e-4,0.0051 0,0.0059 0.3315,0.491153 0.75798,0.913333 1.24804,1.246094 0.002,0.0014 0.002,0.0047 0.004,0.0059 0.24457,0.164977 0.50445,0.305273 0.7793,0.421875 0.55551,0.236523 1.16715,0.373047 1.80859,0.373047 H 125.5957 128 V 52.441406 h -2.38281 z"
       transform="matrix(0.26458333,0,0,0.26458333,10.205358,-65.857142)"
       sodipodi:nodetypes="scsccscssccscsccsccccs" />
    <path
       id="rect320-8"
       style="fill:#ffff00;fill-opacity:0.626506;stroke-width:8.23034"
       d="M 18.738281 19.449219 L 18.738281 37.960938 L 128 37.960938 L 128 19.449219 L 18.738281 19.449219 z "
       transform="matrix(0.26458333,0,0,0.26458333,10.205358,-65.857142)" />
    <path
       id="path817-2-1"
       style="fill:#000000;stroke-width:0.0219348"
       d="m 13.942337,-63.160813 c -0.676247,0 -1.22344,0.548541 -1.22344,1.224789 v 7.34468 c 0,0.676247 0.546989,1.224584 1.224789,1.226134 l 1.220743,0.0013 -0.0013,-7.347376 4.89915,0.0013 v 7.34603 h 1.226132 c 0.676251,0 1.223443,-0.547193 1.223443,-1.22344 l 0.0013,-7.347377 c 0,-0.676248 -0.54854,-1.226134 -1.224788,-1.226134 z m 3.671668,6.123936 c -0.675619,7.6e-4 -1.223236,0.547445 -1.224788,1.224786 v 8.724421 0.0013 c 0,0.0083 0.0013,0.01591 0.0013,0.02425 0.0034,0.160118 0.03517,0.313422 0.09431,0.452726 0.03081,0.07259 0.06819,0.141554 0.11183,0.206139 v 0.0013 c 0.04385,0.0648 0.09441,0.124059 0.14956,0.179205 0.05509,0.0552 0.115768,0.105651 0.180561,0.149559 l 0.0013,0.0013 c 0.130213,0.08794 0.277175,0.15201 0.436556,0.184603 0.08023,0.01668 0.162778,0.02399 0.247936,0.02425 l 11.199595,-0.0013 v -2.44695 h -9.974849 l -0.0013,-7.503674 c 0,-0.675791 -0.546678,-1.2229 -1.220747,-1.222091 z"
       sodipodi:nodetypes="ssscccccsccsssccscscccccccccccss" />
    <path
       id="rect320-8-5"
       style="fill:#ffff00;fill-opacity:0.626506;stroke-width:8.23034"
       d="M 79.332031,61.689453 V 80.201172 H 128 V 61.689453 Z"
       transform="matrix(0.26458333,0,0,0.26458333,10.205358,-65.857142)"
       sodipodi:nodetypes="ccccc" />
    <path
       id="path817-2-1-99"
       style="fill:#000000;stroke-width:0.0829032"
       d="M 74.71875 52.431641 C 72.162856 52.431641 70.095703 54.504649 70.095703 57.060547 L 70.095703 84.820312 C 70.095703 87.37621 72.162853 89.447274 74.724609 89.453125 L 79.337891 89.458984 L 79.333984 61.689453 L 97.849609 61.693359 L 97.849609 89.458984 L 102.48438 89.458984 C 105.04028 89.458984 107.10742 87.389882 107.10742 84.833984 L 107.11328 57.064453 C 107.11328 54.508555 105.04027 52.431641 102.48438 52.431641 L 74.71875 52.431641 z M 88.595703 75.576172 C 86.042182 75.579041 83.972659 77.645045 83.966797 80.205078 L 83.966797 113.17969 L 83.966797 113.18555 C 83.966797 113.21692 83.972656 113.24578 83.972656 113.27734 C 83.985507 113.88251 84.104604 114.46178 84.328125 114.98828 C 84.444572 115.26264 84.587015 115.52348 84.751953 115.76758 L 84.751953 115.77148 C 84.917723 116.0164 85.107969 116.24079 85.316406 116.44922 C 85.524658 116.65785 85.753156 116.84772 85.998047 117.01367 L 86.003906 117.01953 C 86.496046 117.3519 87.051912 117.59361 87.654297 117.7168 C 87.957528 117.77984 88.269944 117.80765 88.591797 117.80859 L 128 117.80273 L 128 108.55469 L 93.220703 108.55469 L 93.214844 80.195312 C 93.214844 77.641153 91.149217 75.573118 88.601562 75.576172 L 88.595703 75.576172 z "
       transform="matrix(0.26458333,0,0,0.26458333,10.205358,-65.857142)" />
  </g>
</svg>
